<mxfile host="app.diagrams.net" agent="Mozilla/5.0 (Macintosh; Intel Mac OS X 10_15_7) AppleWebKit/605.1.15 (KHTML, like Gecko) Version/16.5 Safari/605.1.15" version="24.8.2">
  <diagram name="Page-1" id="oy9Hpu1StYQgTFbHOSIz">
    <mxGraphModel dx="1470" dy="987" grid="1" gridSize="10" guides="1" tooltips="1" connect="1" arrows="1" fold="1" page="1" pageScale="1" pageWidth="850" pageHeight="1100" math="0" shadow="0">
      <root>
        <mxCell id="0" />
        <mxCell id="1" parent="0" />
        <mxCell id="-7RoASF1QNACM562kj3i-1" value="Emily&lt;div&gt;&lt;br&gt;&lt;/div&gt;" style="shape=umlActor;verticalLabelPosition=bottom;verticalAlign=top;html=1;outlineConnect=0;" vertex="1" parent="1">
          <mxGeometry x="100" y="160" width="30" height="60" as="geometry" />
        </mxCell>
        <mxCell id="-7RoASF1QNACM562kj3i-3" value="" style="ellipse;whiteSpace=wrap;html=1;" vertex="1" parent="1">
          <mxGeometry x="230" y="80" width="120" height="80" as="geometry" />
        </mxCell>
        <mxCell id="-7RoASF1QNACM562kj3i-4" value="Browse and Filter pets" style="text;html=1;align=center;verticalAlign=middle;whiteSpace=wrap;rounded=0;" vertex="1" parent="1">
          <mxGeometry x="260" y="105" width="60" height="30" as="geometry" />
        </mxCell>
        <mxCell id="-7RoASF1QNACM562kj3i-5" value="" style="endArrow=none;html=1;rounded=0;entryX=0.025;entryY=0.375;entryDx=0;entryDy=0;entryPerimeter=0;exitX=0.5;exitY=0.5;exitDx=0;exitDy=0;exitPerimeter=0;" edge="1" parent="1" source="-7RoASF1QNACM562kj3i-1" target="-7RoASF1QNACM562kj3i-3">
          <mxGeometry width="50" height="50" relative="1" as="geometry">
            <mxPoint x="130" y="110" as="sourcePoint" />
            <mxPoint x="180" y="60" as="targetPoint" />
          </mxGeometry>
        </mxCell>
        <mxCell id="-7RoASF1QNACM562kj3i-7" value="" style="ellipse;whiteSpace=wrap;html=1;" vertex="1" parent="1">
          <mxGeometry x="230" y="180" width="120" height="80" as="geometry" />
        </mxCell>
        <mxCell id="-7RoASF1QNACM562kj3i-11" value="Virtual Meet and Greet" style="text;html=1;align=center;verticalAlign=middle;whiteSpace=wrap;rounded=0;" vertex="1" parent="1">
          <mxGeometry x="260" y="205" width="60" height="30" as="geometry" />
        </mxCell>
        <mxCell id="-7RoASF1QNACM562kj3i-13" value="" style="endArrow=none;html=1;rounded=0;entryX=0;entryY=0.5;entryDx=0;entryDy=0;" edge="1" parent="1" source="-7RoASF1QNACM562kj3i-1" target="-7RoASF1QNACM562kj3i-7">
          <mxGeometry width="50" height="50" relative="1" as="geometry">
            <mxPoint x="130" y="210" as="sourcePoint" />
            <mxPoint x="180" y="160" as="targetPoint" />
            <Array as="points">
              <mxPoint x="180" y="220" />
            </Array>
          </mxGeometry>
        </mxCell>
        <mxCell id="-7RoASF1QNACM562kj3i-16" value="" style="ellipse;whiteSpace=wrap;html=1;" vertex="1" parent="1">
          <mxGeometry x="230" y="280" width="120" height="80" as="geometry" />
        </mxCell>
        <mxCell id="-7RoASF1QNACM562kj3i-17" value="Online Adoption Process" style="text;html=1;align=center;verticalAlign=middle;whiteSpace=wrap;rounded=0;" vertex="1" parent="1">
          <mxGeometry x="260" y="305" width="60" height="30" as="geometry" />
        </mxCell>
        <mxCell id="-7RoASF1QNACM562kj3i-19" value="" style="endArrow=none;html=1;rounded=0;entryX=0;entryY=0.5;entryDx=0;entryDy=0;" edge="1" parent="1" source="-7RoASF1QNACM562kj3i-1" target="-7RoASF1QNACM562kj3i-16">
          <mxGeometry width="50" height="50" relative="1" as="geometry">
            <mxPoint x="130" y="300" as="sourcePoint" />
            <mxPoint x="180" y="255" as="targetPoint" />
            <Array as="points">
              <mxPoint x="150" y="285" />
            </Array>
          </mxGeometry>
        </mxCell>
        <mxCell id="-7RoASF1QNACM562kj3i-20" value="Mark Johnson&lt;div&gt;&lt;br&gt;&lt;/div&gt;" style="shape=umlActor;verticalLabelPosition=bottom;verticalAlign=top;html=1;outlineConnect=0;" vertex="1" parent="1">
          <mxGeometry x="80" y="690" width="30" height="60" as="geometry" />
        </mxCell>
        <mxCell id="-7RoASF1QNACM562kj3i-21" value="" style="ellipse;whiteSpace=wrap;html=1;" vertex="1" parent="1">
          <mxGeometry x="210" y="560" width="120" height="80" as="geometry" />
        </mxCell>
        <mxCell id="-7RoASF1QNACM562kj3i-23" value="Filter for Family friendly pets" style="text;html=1;align=center;verticalAlign=middle;whiteSpace=wrap;rounded=0;" vertex="1" parent="1">
          <mxGeometry x="240" y="585" width="60" height="30" as="geometry" />
        </mxCell>
        <mxCell id="-7RoASF1QNACM562kj3i-24" value="" style="endArrow=none;html=1;rounded=0;entryX=0;entryY=0.625;entryDx=0;entryDy=0;entryPerimeter=0;exitX=0.5;exitY=0.5;exitDx=0;exitDy=0;exitPerimeter=0;" edge="1" parent="1" source="-7RoASF1QNACM562kj3i-20" target="-7RoASF1QNACM562kj3i-21">
          <mxGeometry width="50" height="50" relative="1" as="geometry">
            <mxPoint x="100" y="720" as="sourcePoint" />
            <mxPoint x="150" y="670" as="targetPoint" />
          </mxGeometry>
        </mxCell>
        <mxCell id="-7RoASF1QNACM562kj3i-25" value="" style="ellipse;whiteSpace=wrap;html=1;" vertex="1" parent="1">
          <mxGeometry x="210" y="680" width="120" height="80" as="geometry" />
        </mxCell>
        <mxCell id="-7RoASF1QNACM562kj3i-26" value="Access Safety tips" style="text;html=1;align=center;verticalAlign=middle;whiteSpace=wrap;rounded=0;" vertex="1" parent="1">
          <mxGeometry x="240" y="705" width="60" height="30" as="geometry" />
        </mxCell>
        <mxCell id="-7RoASF1QNACM562kj3i-27" value="" style="endArrow=none;html=1;rounded=0;entryX=0;entryY=0.5;entryDx=0;entryDy=0;" edge="1" parent="1" target="-7RoASF1QNACM562kj3i-25">
          <mxGeometry width="50" height="50" relative="1" as="geometry">
            <mxPoint x="100" y="720" as="sourcePoint" />
            <mxPoint x="150" y="680" as="targetPoint" />
          </mxGeometry>
        </mxCell>
        <mxCell id="-7RoASF1QNACM562kj3i-28" value="" style="ellipse;whiteSpace=wrap;html=1;" vertex="1" parent="1">
          <mxGeometry x="210" y="790" width="120" height="80" as="geometry" />
        </mxCell>
        <mxCell id="-7RoASF1QNACM562kj3i-29" value="Schedule shelter visits" style="text;html=1;align=center;verticalAlign=middle;whiteSpace=wrap;rounded=0;" vertex="1" parent="1">
          <mxGeometry x="240" y="815" width="60" height="30" as="geometry" />
        </mxCell>
        <mxCell id="-7RoASF1QNACM562kj3i-30" value="" style="endArrow=none;html=1;rounded=0;" edge="1" parent="1" target="-7RoASF1QNACM562kj3i-28">
          <mxGeometry width="50" height="50" relative="1" as="geometry">
            <mxPoint x="100" y="730" as="sourcePoint" />
            <mxPoint x="130" y="770" as="targetPoint" />
          </mxGeometry>
        </mxCell>
        <mxCell id="-7RoASF1QNACM562kj3i-31" value="" style="ellipse;whiteSpace=wrap;html=1;" vertex="1" parent="1">
          <mxGeometry x="210" y="900" width="120" height="80" as="geometry" />
        </mxCell>
        <mxCell id="-7RoASF1QNACM562kj3i-32" value="Initiate Adoption process" style="text;html=1;align=center;verticalAlign=middle;whiteSpace=wrap;rounded=0;" vertex="1" parent="1">
          <mxGeometry x="240" y="925" width="60" height="30" as="geometry" />
        </mxCell>
        <mxCell id="-7RoASF1QNACM562kj3i-33" value="" style="endArrow=none;html=1;rounded=0;" edge="1" parent="1" target="-7RoASF1QNACM562kj3i-31">
          <mxGeometry width="50" height="50" relative="1" as="geometry">
            <mxPoint x="100" y="740" as="sourcePoint" />
            <mxPoint x="160" y="770" as="targetPoint" />
          </mxGeometry>
        </mxCell>
        <mxCell id="-7RoASF1QNACM562kj3i-35" value="Lisa Johnson&lt;div&gt;&lt;br&gt;&lt;/div&gt;" style="shape=umlActor;verticalLabelPosition=bottom;verticalAlign=top;html=1;outlineConnect=0;" vertex="1" parent="1">
          <mxGeometry x="480" y="690" width="30" height="60" as="geometry" />
        </mxCell>
        <mxCell id="-7RoASF1QNACM562kj3i-37" value="" style="endArrow=none;html=1;rounded=0;" edge="1" parent="1">
          <mxGeometry width="50" height="50" relative="1" as="geometry">
            <mxPoint x="330" y="600" as="sourcePoint" />
            <mxPoint x="480" y="690" as="targetPoint" />
          </mxGeometry>
        </mxCell>
        <mxCell id="-7RoASF1QNACM562kj3i-38" value="" style="endArrow=none;html=1;rounded=0;exitX=1;exitY=0.5;exitDx=0;exitDy=0;" edge="1" parent="1" source="-7RoASF1QNACM562kj3i-25">
          <mxGeometry width="50" height="50" relative="1" as="geometry">
            <mxPoint x="390" y="770" as="sourcePoint" />
            <mxPoint x="470" y="720" as="targetPoint" />
          </mxGeometry>
        </mxCell>
        <mxCell id="-7RoASF1QNACM562kj3i-39" value="" style="endArrow=none;html=1;rounded=0;" edge="1" parent="1">
          <mxGeometry width="50" height="50" relative="1" as="geometry">
            <mxPoint x="330" y="830" as="sourcePoint" />
            <mxPoint x="460" y="750" as="targetPoint" />
          </mxGeometry>
        </mxCell>
        <mxCell id="-7RoASF1QNACM562kj3i-40" value="" style="endArrow=none;html=1;rounded=0;" edge="1" parent="1">
          <mxGeometry width="50" height="50" relative="1" as="geometry">
            <mxPoint x="330" y="930" as="sourcePoint" />
            <mxPoint x="460" y="760" as="targetPoint" />
          </mxGeometry>
        </mxCell>
        <mxCell id="-7RoASF1QNACM562kj3i-41" value="The Use Cases of the Johsons Family" style="text;html=1;align=center;verticalAlign=middle;whiteSpace=wrap;rounded=0;" vertex="1" parent="1">
          <mxGeometry x="145" y="490" width="290" height="30" as="geometry" />
        </mxCell>
        <mxCell id="-7RoASF1QNACM562kj3i-42" value="Robert&lt;div&gt;&lt;br&gt;&lt;/div&gt;" style="shape=umlActor;verticalLabelPosition=bottom;verticalAlign=top;html=1;outlineConnect=0;" vertex="1" parent="1">
          <mxGeometry x="530" y="160" width="30" height="60" as="geometry" />
        </mxCell>
        <mxCell id="-7RoASF1QNACM562kj3i-43" value="" style="ellipse;whiteSpace=wrap;html=1;" vertex="1" parent="1">
          <mxGeometry x="640" y="55" width="120" height="80" as="geometry" />
        </mxCell>
        <mxCell id="-7RoASF1QNACM562kj3i-46" value="Easy navigation" style="text;html=1;align=center;verticalAlign=middle;whiteSpace=wrap;rounded=0;" vertex="1" parent="1">
          <mxGeometry x="670" y="80" width="60" height="30" as="geometry" />
        </mxCell>
        <mxCell id="-7RoASF1QNACM562kj3i-47" value="" style="endArrow=none;html=1;rounded=0;entryX=-0.026;entryY=0.618;entryDx=0;entryDy=0;entryPerimeter=0;" edge="1" parent="1" target="-7RoASF1QNACM562kj3i-43">
          <mxGeometry width="50" height="50" relative="1" as="geometry">
            <mxPoint x="550" y="190" as="sourcePoint" />
            <mxPoint x="620" y="120" as="targetPoint" />
          </mxGeometry>
        </mxCell>
        <mxCell id="-7RoASF1QNACM562kj3i-53" style="edgeStyle=orthogonalEdgeStyle;rounded=0;orthogonalLoop=1;jettySize=auto;html=1;exitX=0.5;exitY=1;exitDx=0;exitDy=0;" edge="1" parent="1" source="-7RoASF1QNACM562kj3i-48" target="-7RoASF1QNACM562kj3i-49">
          <mxGeometry relative="1" as="geometry" />
        </mxCell>
        <mxCell id="-7RoASF1QNACM562kj3i-48" value="" style="ellipse;whiteSpace=wrap;html=1;" vertex="1" parent="1">
          <mxGeometry x="640" y="155" width="120" height="80" as="geometry" />
        </mxCell>
        <mxCell id="-7RoASF1QNACM562kj3i-49" value="Select Senior, low-energy pets" style="text;html=1;align=center;verticalAlign=middle;whiteSpace=wrap;rounded=0;" vertex="1" parent="1">
          <mxGeometry x="670" y="180" width="60" height="30" as="geometry" />
        </mxCell>
        <mxCell id="-7RoASF1QNACM562kj3i-52" value="" style="endArrow=none;html=1;rounded=0;entryX=0;entryY=0.5;entryDx=0;entryDy=0;" edge="1" parent="1" source="-7RoASF1QNACM562kj3i-42" target="-7RoASF1QNACM562kj3i-48">
          <mxGeometry width="50" height="50" relative="1" as="geometry">
            <mxPoint x="560" y="200" as="sourcePoint" />
            <mxPoint x="610" y="150" as="targetPoint" />
          </mxGeometry>
        </mxCell>
        <mxCell id="-7RoASF1QNACM562kj3i-54" value="" style="ellipse;whiteSpace=wrap;html=1;" vertex="1" parent="1">
          <mxGeometry x="640" y="255" width="120" height="80" as="geometry" />
        </mxCell>
        <mxCell id="-7RoASF1QNACM562kj3i-55" value="Request transportation assistance" style="text;html=1;align=center;verticalAlign=middle;whiteSpace=wrap;rounded=0;" vertex="1" parent="1">
          <mxGeometry x="650" y="280" width="100" height="30" as="geometry" />
        </mxCell>
        <mxCell id="-7RoASF1QNACM562kj3i-56" value="" style="endArrow=none;html=1;rounded=0;entryX=-0.002;entryY=0.332;entryDx=0;entryDy=0;entryPerimeter=0;" edge="1" parent="1" source="-7RoASF1QNACM562kj3i-42" target="-7RoASF1QNACM562kj3i-54">
          <mxGeometry width="50" height="50" relative="1" as="geometry">
            <mxPoint x="560" y="270" as="sourcePoint" />
            <mxPoint x="610" y="220" as="targetPoint" />
          </mxGeometry>
        </mxCell>
        <mxCell id="-7RoASF1QNACM562kj3i-58" value="" style="ellipse;whiteSpace=wrap;html=1;" vertex="1" parent="1">
          <mxGeometry x="640" y="350" width="120" height="80" as="geometry" />
        </mxCell>
        <mxCell id="-7RoASF1QNACM562kj3i-59" value="Complete Online adoption" style="text;html=1;align=center;verticalAlign=middle;whiteSpace=wrap;rounded=0;" vertex="1" parent="1">
          <mxGeometry x="630" y="375" width="130" height="30" as="geometry" />
        </mxCell>
        <mxCell id="-7RoASF1QNACM562kj3i-60" value="" style="endArrow=none;html=1;rounded=0;entryX=0.152;entryY=0.029;entryDx=0;entryDy=0;entryPerimeter=0;" edge="1" parent="1" target="-7RoASF1QNACM562kj3i-59">
          <mxGeometry width="50" height="50" relative="1" as="geometry">
            <mxPoint x="560" y="230" as="sourcePoint" />
            <mxPoint x="580" y="240" as="targetPoint" />
          </mxGeometry>
        </mxCell>
        <mxCell id="-7RoASF1QNACM562kj3i-63" value="Sam" style="shape=umlActor;verticalLabelPosition=bottom;verticalAlign=top;html=1;outlineConnect=0;" vertex="1" parent="1">
          <mxGeometry x="610" y="675" width="30" height="60" as="geometry" />
        </mxCell>
        <mxCell id="-7RoASF1QNACM562kj3i-64" value="" style="ellipse;whiteSpace=wrap;html=1;" vertex="1" parent="1">
          <mxGeometry x="700" y="550" width="120" height="80" as="geometry" />
        </mxCell>
        <mxCell id="-7RoASF1QNACM562kj3i-65" value="&lt;li&gt;Utilize advanced filters&lt;/li&gt;" style="text;html=1;align=center;verticalAlign=middle;whiteSpace=wrap;rounded=0;" vertex="1" parent="1">
          <mxGeometry x="710" y="575" width="100" height="30" as="geometry" />
        </mxCell>
        <mxCell id="-7RoASF1QNACM562kj3i-66" value="" style="endArrow=none;html=1;rounded=0;" edge="1" parent="1" target="-7RoASF1QNACM562kj3i-64">
          <mxGeometry width="50" height="50" relative="1" as="geometry">
            <mxPoint x="630" y="710" as="sourcePoint" />
            <mxPoint x="680" y="660" as="targetPoint" />
          </mxGeometry>
        </mxCell>
        <mxCell id="-7RoASF1QNACM562kj3i-67" value="" style="ellipse;whiteSpace=wrap;html=1;" vertex="1" parent="1">
          <mxGeometry x="710" y="690" width="120" height="80" as="geometry" />
        </mxCell>
        <mxCell id="-7RoASF1QNACM562kj3i-68" value="" style="endArrow=none;html=1;rounded=0;entryX=0;entryY=0.5;entryDx=0;entryDy=0;" edge="1" parent="1" target="-7RoASF1QNACM562kj3i-67">
          <mxGeometry width="50" height="50" relative="1" as="geometry">
            <mxPoint x="640" y="720" as="sourcePoint" />
            <mxPoint x="690" y="670" as="targetPoint" />
          </mxGeometry>
        </mxCell>
        <mxCell id="-7RoASF1QNACM562kj3i-69" value="&lt;span style=&quot;font-style: normal; font-variant-caps: normal; font-weight: 400; letter-spacing: normal; orphans: auto; text-align: start; text-indent: 0px; text-transform: none; white-space: normal; widows: auto; word-spacing: 0px; -webkit-text-stroke-width: 0px; text-decoration: none; caret-color: rgb(0, 0, 0); color: rgb(0, 0, 0); font-size: medium; float: none; display: inline !important;&quot;&gt;access detailed pet profiles&lt;/span&gt;" style="text;html=1;align=center;verticalAlign=middle;whiteSpace=wrap;rounded=0;" vertex="1" parent="1">
          <mxGeometry x="710" y="715" width="120" height="30" as="geometry" />
        </mxCell>
        <mxCell id="-7RoASF1QNACM562kj3i-70" value="" style="ellipse;whiteSpace=wrap;html=1;" vertex="1" parent="1">
          <mxGeometry x="710" y="790" width="120" height="80" as="geometry" />
        </mxCell>
        <mxCell id="-7RoASF1QNACM562kj3i-71" value="" style="endArrow=none;html=1;rounded=0;entryX=0.048;entryY=0.395;entryDx=0;entryDy=0;entryPerimeter=0;" edge="1" parent="1" target="-7RoASF1QNACM562kj3i-70">
          <mxGeometry width="50" height="50" relative="1" as="geometry">
            <mxPoint x="650" y="740" as="sourcePoint" />
            <mxPoint x="690" y="720" as="targetPoint" />
          </mxGeometry>
        </mxCell>
        <mxCell id="-7RoASF1QNACM562kj3i-73" value="Review Educational Resources" style="text;html=1;align=center;verticalAlign=middle;whiteSpace=wrap;rounded=0;" vertex="1" parent="1">
          <mxGeometry x="710" y="815" width="110" height="30" as="geometry" />
        </mxCell>
        <mxCell id="-7RoASF1QNACM562kj3i-74" value="" style="ellipse;whiteSpace=wrap;html=1;" vertex="1" parent="1">
          <mxGeometry x="705" y="890" width="120" height="80" as="geometry" />
        </mxCell>
        <mxCell id="-7RoASF1QNACM562kj3i-75" value="Initiate efficient adoption process" style="text;html=1;align=center;verticalAlign=middle;whiteSpace=wrap;rounded=0;" vertex="1" parent="1">
          <mxGeometry x="700" y="915" width="120" height="30" as="geometry" />
        </mxCell>
        <mxCell id="-7RoASF1QNACM562kj3i-76" value="" style="endArrow=none;html=1;rounded=0;entryX=0.075;entryY=0.266;entryDx=0;entryDy=0;entryPerimeter=0;" edge="1" parent="1" target="-7RoASF1QNACM562kj3i-74">
          <mxGeometry width="50" height="50" relative="1" as="geometry">
            <mxPoint x="630" y="760" as="sourcePoint" />
            <mxPoint x="680" y="800" as="targetPoint" />
          </mxGeometry>
        </mxCell>
      </root>
    </mxGraphModel>
  </diagram>
</mxfile>
